# xmcd
#
# Track frame offsets: 
#        150
#        14065
#        27354
#        41573
#        59770
#        78215
#        99135
#        113144
#        132556
#        143903
#        158282
#        174520
#        194161
#        207880
#        227065
#        240872
#
# Disc length: 3377 seconds
#
# Revision: 0
# Processed by: cddbd v1.5.2PL0 Copyright (c) Steve Scherf et al.
# Submitted via: ExactAudioCopyFreeDBPlugin 1.0
#
DISCID=d30d2f10
DTITLE=Carolyn Martin - Wild West Texas Wind
DYEAR=2018
DGENRE=Country
TTITLE0=Across The Alley From The Alamo
TTITLE1=Red River Valley
TTITLE2=Yodeling In My Sleep
TTITLE3=Fever
TTITLE4=Wild West Texas Wind
TTITLE5=Cry Me A River
TTITLE6=Wayward Wind
TTITLE7=Vaya Con Dios
TTITLE8=The Day The Bass Players Took Over the World
TTITLE9=Cowboy's Sweetheart
TTITLE10=Wine
TTITLE11=Spanish Is The Loving Tongue
TTITLE12=Detour
TTITLE13=South of The Border
TTITLE14=You Can't Take The Texas Out Of The Girl
TTITLE15=Tay The Bass Players Took Over the World Western
EXTD=
EXTT0=
EXTT1=
EXTT2=
EXTT3=
EXTT4=
EXTT5=
EXTT6=
EXTT7=
EXTT8=
EXTT9=
EXTT10=
EXTT11=
EXTT12=
EXTT13=
EXTT14=
EXTT15=
PLAYORDER=
